{
  "accessors": [
    {
      "bufferView": 2,
      "componentType": 5126,
      "count": 65532,
      "max": [
        -1.1555579900741577,
        1.3164491653442383,
        2.0163545608520508
      ],
      "min": [
        -3.8059842586517334,
        -3.3424568176269531,
        0.75332534313201904
      ],
      "type": "VEC3"
    },
    {
      "bufferView": 2,
      "byteOffset": 786384,
      "componentType": 5126,
      "count": 65532,
      "max": [
        0.99988275766372681,
        0.9999922513961792,
        0.99999731779098511
      ],
      "min": [
        -0.99999463558197021,
        -0.99990856647491455,
        -0.99998873472213745
      ],
      "type": "VEC3"
    },
    {
      "bufferView": 1,
      "componentType": 5126,
      "count": 65532,
      "max": [
        0.99998754262924194,
        1
      ],
      "min": [
        0.00012748580775223672,
        0
      ],
      "type": "VEC2"
    },
    {
      "bufferView": 0,
      "componentType": 5125,
      "count": 285540,
      "max": [
        65531
      ],
      "min": [
        0
      ],
      "type": "SCALAR"
    },
    {
      "bufferView": 2,
      "byteOffset": 1572768,
      "componentType": 5126,
      "count": 65532,
      "max": [
        -0.52561253309249878,
        0.92519927024841309,
        1.548753023147583
      ],
      "min": [
        -2.6539847850799561,
        -1.9444791078567505,
        -0.72689175605773926
      ],
      "type": "VEC3"
    },
    {
      "bufferView": 2,
      "byteOffset": 2359152,
      "componentType": 5126,
      "count": 65532,
      "max": [
        0.99936997890472412,
        0.99992990493774414,
        0.99999523162841797
      ],
      "min": [
        -0.9999731183052063,
        -0.99998420476913452,
        -0.99998635053634644
      ],
      "type": "VEC3"
    },
    {
      "bufferView": 1,
      "byteOffset": 524256,
      "componentType": 5126,
      "count": 65532,
      "max": [
        1,
        1
      ],
      "min": [
        1.2566757504828274e-05,
        4.1347637306898832e-05
      ],
      "type": "VEC2"
    },
    {
      "bufferView": 0,
      "byteOffset": 1142160,
      "componentType": 5125,
      "count": 269475,
      "max": [
        65531
      ],
      "min": [
        0
      ],
      "type": "SCALAR"
    },
    {
      "bufferView": 2,
      "byteOffset": 3145536,
      "componentType": 5126,
      "count": 65532,
      "max": [
        -0.11874987185001373,
        3.6830787658691406,
        2.5198667049407959
      ],
      "min": [
        -3.4956605434417725,
        -0.93907129764556885,
        -1.2400275468826294
      ],
      "type": "VEC3"
    },
    {
      "bufferView": 2,
      "byteOffset": 3931920,
      "componentType": 5126,
      "count": 65532,
      "max": [
        0.99999004602432251,
        1,
        0.99995881319046021
      ],
      "min": [
        -0.99999850988388062,
        -0.99999618530273438,
        -0.99998444318771362
      ],
      "type": "VEC3"
    },
    {
      "bufferView": 1,
      "byteOffset": 1048512,
      "componentType": 5126,
      "count": 65532,
      "max": [
        1,
        0.99999827146530151
      ],
      "min": [
        2.7459595003165305e-05,
        1.4672521501779556e-05
      ],
      "type": "VEC2"
    },
    {
      "bufferView": 0,
      "byteOffset": 2220060,
      "componentType": 5125,
      "count": 273579,
      "max": [
        65531
      ],
      "min": [
        0
      ],
      "type": "SCALAR"
    },
    {
      "bufferView": 2,
      "byteOffset": 4718304,
      "componentType": 5126,
      "count": 65532,
      "max": [
        1.6607460975646973,
        4.535315990447998,
        2.4370083808898926
      ],
      "min": [
        -2.3394317626953125,
        0.72424012422561646,
        0.25669312477111816
      ],
      "type": "VEC3"
    },
    {
      "bufferView": 2,
      "byteOffset": 5504688,
      "componentType": 5126,
      "count": 65532,
      "max": [
        0.99994701147079468,
        0.99996292591094971,
        0.99998718500137329
      ],
      "min": [
        -0.99995118379592896,
        -0.99994528293609619,
        -0.99996042251586914
      ],
      "type": "VEC3"
    },
    {
      "bufferView": 1,
      "byteOffset": 1572768,
      "componentType": 5126,
      "count": 65532,
      "max": [
        1,
        1
      ],
      "min": [
        0.0001229250046890229,
        6.7529981606639922e-05
      ],
      "type": "VEC2"
    },
    {
      "bufferView": 0,
      "byteOffset": 3314376,
      "componentType": 5125,
      "count": 280335,
      "max": [
        65531
      ],
      "min": [
        0
      ],
      "type": "SCALAR"
    },
    {
      "bufferView": 2,
      "byteOffset": 6291072,
      "componentType": 5126,
      "count": 65532,
      "max": [
        1.1864145994186401,
        2.9230999946594238,
        1.6395523548126221
      ],
      "min": [
        -2.1616675853729248,
        0.55717742443084717,
        -1.118110179901123
      ],
      "type": "VEC3"
    },
    {
      "bufferView": 2,
      "byteOffset": 7077456,
      "componentType": 5126,
      "count": 65532,
      "max": [
        0.9999808669090271,
        0.99999815225601196,
        0.99997639656066895
      ],
      "min": [
        -0.99999701976776123,
        -0.99994170665740967,
        -0.99999231100082397
      ],
      "type": "VEC3"
    },
    {
      "bufferView": 1,
      "byteOffset": 2097024,
      "componentType": 5126,
      "count": 65532,
      "max": [
        1,
        1
      ],
      "min": [
        9.8174801678396761e-05,
        0.00013405451318249106
      ],
      "type": "VEC2"
    },
    {
      "bufferView": 0,
      "byteOffset": 4435716,
      "componentType": 5125,
      "count": 263907,
      "max": [
        65531
      ],
      "min": [
        0
      ],
      "type": "SCALAR"
    },
    {
      "bufferView": 2,
      "byteOffset": 7863840,
      "componentType": 5126,
      "count": 65532,
      "max": [
        1.2128212451934814,
        2.9230999946594238,
        1.1191236972808838
      ],
      "min": [
        -1.2695538997650146,
        0.32404586672782898,
        -1.390851616859436
      ],
      "type": "VEC3"
    },
    {
      "bufferView": 2,
      "byteOffset": 8650224,
      "componentType": 5126,
      "count": 65532,
      "max": [
        0.9999927282333374,
        0.99998843669891357,
        0.99986976385116577
      ],
      "min": [
        -0.99999219179153442,
        -0.99999964237213135,
        -0.99999856948852539
      ],
      "type": "VEC3"
    },
    {
      "bufferView": 1,
      "byteOffset": 2621280,
      "componentType": 5126,
      "count": 65532,
      "max": [
        1,
        1
      ],
      "min": [
        0,
        5.1677794544957578e-05
      ],
      "type": "VEC2"
    },
    {
      "bufferView": 0,
      "byteOffset": 5491344,
      "componentType": 5125,
      "count": 260760,
      "max": [
        65531
      ],
      "min": [
        0
      ],
      "type": "SCALAR"
    },
    {
      "bufferView": 2,
      "byteOffset": 9436608,
      "componentType": 5126,
      "count": 65532,
      "max": [
        2.1778559684753418,
        1.4940215349197388,
        1.7809286117553711
      ],
      "min": [
        -2.2858431339263916,
        -3.9608168601989746,
        -1.0801384449005127
      ],
      "type": "VEC3"
    },
    {
      "bufferView": 2,
      "byteOffset": 10222992,
      "componentType": 5126,
      "count": 65532,
      "max": [
        0.99993586540222168,
        0.99977558851242065,
        0.99994963407516479
      ],
      "min": [
        -0.99994832277297974,
        -0.99999755620956421,
        -0.99999773502349854
      ],
      "type": "VEC3"
    },
    {
      "bufferView": 1,
      "byteOffset": 3145536,
      "componentType": 5126,
      "count": 65532,
      "max": [
        0.9999849796295166,
        0.99999523162841797
      ],
      "min": [
        1.1549778719199821e-05,
        0.00012835247616749257
      ],
      "type": "VEC2"
    },
    {
      "bufferView": 0,
      "byteOffset": 6534384,
      "componentType": 5125,
      "count": 310872,
      "max": [
        65531
      ],
      "min": [
        0
      ],
      "type": "SCALAR"
    },
    {
      "bufferView": 2,
      "byteOffset": 11009376,
      "componentType": 5126,
      "count": 65532,
      "max": [
        2.4298708438873291,
        7.173563790274784e-05,
        1.7014126777648926
      ],
      "min": [
        -1.6073683500289917,
        -3.5641963481903076,
        -1.2508313655853271
      ],
      "type": "VEC3"
    },
    {
      "bufferView": 2,
      "byteOffset": 11795760,
      "componentType": 5126,
      "count": 65532,
      "max": [
        0.99997806549072266,
        0.99992567300796509,
        0.99990600347518921
      ],
      "min": [
        -0.99996501207351685,
        -0.99998623132705688,
        -0.9999728798866272
      ],
      "type": "VEC3"
    },
    {
      "bufferView": 1,
      "byteOffset": 3669792,
      "componentType": 5126,
      "count": 65532,
      "max": [
        0.99997735023498535,
        1
      ],
      "min": [
        7.637890666956082e-05,
        4.4599080865737051e-05
      ],
      "type": "VEC2"
    },
    {
      "bufferView": 0,
      "byteOffset": 7777872,
      "componentType": 5125,
      "count": 267393,
      "max": [
        65531
      ],
      "min": [
        0
      ],
      "type": "SCALAR"
    },
    {
      "bufferView": 2,
      "byteOffset": 12582144,
      "componentType": 5126,
      "count": 65532,
      "max": [
        1.6333279609680176,
        0.42702847719192505,
        1.4837274551391602
      ],
      "min": [
        -1.2715581655502319,
        -2.0353667736053467,
        -1.1826416254043579
      ],
      "type": "VEC3"
    },
    {
      "bufferView": 2,
      "byteOffset": 13368528,
      "componentType": 5126,
      "count": 65532,
      "max": [
        0.9999956488609314,
        0.99998611211776733,
        0.99998748302459717
      ],
      "min": [
        -0.99997943639755249,
        -0.99999916553497314,
        -0.9999813437461853
      ],
      "type": "VEC3"
    },
    {
      "bufferView": 1,
      "byteOffset": 4194048,
      "componentType": 5126,
      "count": 65532,
      "max": [
        1,
        0.99998646974563599
      ],
      "min": [
        0.00010066376853501424,
        6.7108558141626418e-05
      ],
      "type": "VEC2"
    },
    {
      "bufferView": 0,
      "byteOffset": 8847444,
      "componentType": 5125,
      "count": 268995,
      "max": [
        65531
      ],
      "min": [
        0
      ],
      "type": "SCALAR"
    },
    {
      "bufferView": 2,
      "byteOffset": 14154912,
      "componentType": 5126,
      "count": 65532,
      "max": [
        3.2855024337768555,
        3.5465848445892334,
        1.8494011163711548
      ],
      "min": [
        -0.42001470923423767,
        -1.4876788854598999,
        -1.5699863433837891
      ],
      "type": "VEC3"
    },
    {
      "bufferView": 2,
      "byteOffset": 14941296,
      "componentType": 5126,
      "count": 65532,
      "max": [
        0.9999956488609314,
        0.99999076128005981,
        0.99999690055847168
      ],
      "min": [
        -0.99991631507873535,
        -0.99999701976776123,
        -0.99999570846557617
      ],
      "type": "VEC3"
    },
    {
      "bufferView": 1,
      "byteOffset": 4718304,
      "componentType": 5126,
      "count": 65532,
      "max": [
        1,
        0.99998998641967773
      ],
      "min": [
        5.3904765081824735e-05,
        7.4800576840061694e-05
      ],
      "type": "VEC2"
    },
    {
      "bufferView": 0,
      "byteOffset": 9923424,
      "componentType": 5125,
      "count": 269085,
      "max": [
        65531
      ],
      "min": [
        0
      ],
      "type": "SCALAR"
    },
    {
      "bufferView": 2,
      "byteOffset": 15727680,
      "componentType": 5126,
      "count": 65532,
      "max": [
        3.7834150791168213,
        2.7962033748626709,
        1.7974640130996704
      ],
      "min": [
        0.33274549245834351,
        0.41737926006317139,
        -1.1973223686218262
      ],
      "type": "VEC3"
    },
    {
      "bufferView": 2,
      "byteOffset": 16514064,
      "componentType": 5126,
      "count": 65532,
      "max": [
        0.99996769428253174,
        0.99999809265136719,
        0.99999624490737915
      ],
      "min": [
        -0.99998092651367188,
        -0.99998235702514648,
        -0.99999183416366577
      ],
      "type": "VEC3"
    },
    {
      "bufferView": 1,
      "byteOffset": 5242560,
      "componentType": 5126,
      "count": 65532,
      "max": [
        0.99997526407241821,
        1
      ],
      "min": [
        6.6915526986122131e-06,
        9.5295588835142553e-05
      ],
      "type": "VEC2"
    },
    {
      "bufferView": 0,
      "byteOffset": 10999764,
      "componentType": 5125,
      "count": 270543,
      "max": [
        65531
      ],
      "min": [
        0
      ],
      "type": "SCALAR"
    },
    {
      "bufferView": 2,
      "byteOffset": 17300448,
      "componentType": 5126,
      "count": 65533,
      "max": [
        4.1288723945617676,
        1.8809707164764404,
        2.313859224319458
      ],
      "min": [
        0.96561717987060547,
        -2.5690121650695801,
        -0.63072025775909424
      ],
      "type": "VEC3"
    },
    {
      "bufferView": 2,
      "byteOffset": 18086844,
      "componentType": 5126,
      "count": 65533,
      "max": [
        0.9999883770942688,
        0.99996203184127808,
        0.99993658065795898
      ],
      "min": [
        -0.99998718500137329,
        -0.99999278783798218,
        -0.99999129772186279
      ],
      "type": "VEC3"
    },
    {
      "bufferView": 1,
      "byteOffset": 5766816,
      "componentType": 5126,
      "count": 65533,
      "max": [
        1,
        1
      ],
      "min": [
        0.00015032745432108641,
        0
      ],
      "type": "VEC2"
    },
    {
      "bufferView": 0,
      "byteOffset": 12081936,
      "componentType": 5125,
      "count": 297288,
      "max": [
        65532
      ],
      "min": [
        0
      ],
      "type": "SCALAR"
    },
    {
      "bufferView": 2,
      "byteOffset": 18873240,
      "componentType": 5126,
      "count": 65532,
      "max": [
        2.9225864410400391,
        1.0461189746856689,
        1.7088382244110107
      ],
      "min": [
        0.53556758165359497,
        -1.2023558616638184,
        -1.3364707231521606
      ],
      "type": "VEC3"
    },
    {
      "bufferView": 2,
      "byteOffset": 19659624,
      "componentType": 5126,
      "count": 65532,
      "max": [
        0.99997472763061523,
        0.9999997615814209,
        0.99999791383743286
      ],
      "min": [
        -0.99995756149291992,
        -0.99999618530273438,
        -0.99999850988388062
      ],
      "type": "VEC3"
    },
    {
      "bufferView": 1,
      "byteOffset": 6291080,
      "componentType": 5126,
      "count": 65532,
      "max": [
        0.99998831748962402,
        0.99999755620956421
      ],
      "min": [
        7.5252617534715682e-05,
        4.3789503251900896e-05
      ],
      "type": "VEC2"
    },
    {
      "bufferView": 0,
      "byteOffset": 13271088,
      "componentType": 5125,
      "count": 269280,
      "max": [
        65531
      ],
      "min": [
        0
      ],
      "type": "SCALAR"
    },
    {
      "bufferView": 2,
      "byteOffset": 20446008,
      "componentType": 5126,
      "count": 28908,
      "max": [
        4.0395169258117676,
        4.1251263618469238,
        2.0524516105651855
      ],
      "min": [
        -3.5930600166320801,
        -3.9017951488494873,
        -1.4921315908432007
      ],
      "type": "VEC3"
    },
    {
      "bufferView": 2,
      "byteOffset": 20792904,
      "componentType": 5126,
      "count": 28908,
      "max": [
        0.9999927282333374,
        0.99996203184127808,
        0.99995881319046021
      ],
      "min": [
        -0.99991381168365479,
        -0.99995267391204834,
        -0.99991869926452637
      ],
      "type": "VEC3"
    },
    {
      "bufferView": 1,
      "byteOffset": 6815336,
      "componentType": 5126,
      "count": 28908,
      "max": [
        1,
        0.99995839595794678
      ],
      "min": [
        7.7330369094852358e-05,
        2.8445909265428782e-05
      ],
      "type": "VEC2"
    },
    {
      "bufferView": 0,
      "byteOffset": 14348208,
      "componentType": 5125,
      "count": 58266,
      "max": [
        28907
      ],
      "min": [
        0
      ],
      "type": "SCALAR"
    }
  ],
  "asset": {
    "extras": {
      "author": "Mike Young (https://sketchfab.com/mike.young)",
      "license": "CC-BY-4.0 (http://creativecommons.org/licenses/by/4.0/)",
      "source": "https://sketchfab.com/3d-models/dalees-coral-scl-8-658b9b273317453b94f3265d048a09c6",
      "title": "DalEES_coral_Scl_8"
    },
    "generator": "Sketchfab-9.0.0",
    "version": "2.0"
  },
  "bufferViews": [
    {
      "buffer": 0,
      "byteLength": 14581272,
      "byteOffset": 0,
      "name": "floatBufferViews",
      "target": 34963
    },
    {
      "buffer": 0,
      "byteLength": 7046600,
      "byteOffset": 14581272,
      "byteStride": 8,
      "name": "floatBufferViews",
      "target": 34962
    },
    {
      "buffer": 0,
      "byteLength": 21139800,
      "byteOffset": 21627872,
      "byteStride": 12,
      "name": "floatBufferViews",
      "target": 34962
    }
  ],
  "buffers": [
    {
      "byteLength": 42767672,
      "uri": "scene.bin"
    }
  ],
  "extensionsUsed": [
    "KHR_materials_unlit"
  ],
  "images": [
    {
      "uri": "textures/material0_baseColor.jpeg"
    }
  ],
  "materials": [
    {
      "doubleSided": true,
      "emissiveFactor": [
        0,
        0,
        0
      ],
      "extensions": {
        "KHR_materials_unlit": {}
      },
      "name": "material0",
      "pbrMetallicRoughness": {
        "baseColorFactor": [
          1,
          1,
          1,
          1
        ],
        "baseColorTexture": {
          "index": 0,
          "texCoord": 0
        },
        "metallicFactor": 0,
        "roughnessFactor": 1
      }
    }
  ],
  "meshes": [
    {
      "name": "Model_material0_0",
      "primitives": [
        {
          "attributes": {
            "NORMAL": 1,
            "POSITION": 0,
            "TEXCOORD_0": 2
          },
          "indices": 3,
          "material": 0,
          "mode": 4
        }
      ]
    },
    {
      "name": "Model_material0_0",
      "primitives": [
        {
          "attributes": {
            "NORMAL": 5,
            "POSITION": 4,
            "TEXCOORD_0": 6
          },
          "indices": 7,
          "material": 0,
          "mode": 4
        }
      ]
    },
    {
      "name": "Model_material0_0",
      "primitives": [
        {
          "attributes": {
            "NORMAL": 9,
            "POSITION": 8,
            "TEXCOORD_0": 10
          },
          "indices": 11,
          "material": 0,
          "mode": 4
        }
      ]
    },
    {
      "name": "Model_material0_0",
      "primitives": [
        {
          "attributes": {
            "NORMAL": 13,
            "POSITION": 12,
            "TEXCOORD_0": 14
          },
          "indices": 15,
          "material": 0,
          "mode": 4
        }
      ]
    },
    {
      "name": "Model_material0_0",
      "primitives": [
        {
          "attributes": {
            "NORMAL": 17,
            "POSITION": 16,
            "TEXCOORD_0": 18
          },
          "indices": 19,
          "material": 0,
          "mode": 4
        }
      ]
    },
    {
      "name": "Model_material0_0",
      "primitives": [
        {
          "attributes": {
            "NORMAL": 21,
            "POSITION": 20,
            "TEXCOORD_0": 22
          },
          "indices": 23,
          "material": 0,
          "mode": 4
        }
      ]
    },
    {
      "name": "Model_material0_0",
      "primitives": [
        {
          "attributes": {
            "NORMAL": 25,
            "POSITION": 24,
            "TEXCOORD_0": 26
          },
          "indices": 27,
          "material": 0,
          "mode": 4
        }
      ]
    },
    {
      "name": "Model_material0_0",
      "primitives": [
        {
          "attributes": {
            "NORMAL": 29,
            "POSITION": 28,
            "TEXCOORD_0": 30
          },
          "indices": 31,
          "material": 0,
          "mode": 4
        }
      ]
    },
    {
      "name": "Model_material0_0",
      "primitives": [
        {
          "attributes": {
            "NORMAL": 33,
            "POSITION": 32,
            "TEXCOORD_0": 34
          },
          "indices": 35,
          "material": 0,
          "mode": 4
        }
      ]
    },
    {
      "name": "Model_material0_0",
      "primitives": [
        {
          "attributes": {
            "NORMAL": 37,
            "POSITION": 36,
            "TEXCOORD_0": 38
          },
          "indices": 39,
          "material": 0,
          "mode": 4
        }
      ]
    },
    {
      "name": "Model_material0_0",
      "primitives": [
        {
          "attributes": {
            "NORMAL": 41,
            "POSITION": 40,
            "TEXCOORD_0": 42
          },
          "indices": 43,
          "material": 0,
          "mode": 4
        }
      ]
    },
    {
      "name": "Model_material0_0",
      "primitives": [
        {
          "attributes": {
            "NORMAL": 45,
            "POSITION": 44,
            "TEXCOORD_0": 46
          },
          "indices": 47,
          "material": 0,
          "mode": 4
        }
      ]
    },
    {
      "name": "Model_material0_0",
      "primitives": [
        {
          "attributes": {
            "NORMAL": 49,
            "POSITION": 48,
            "TEXCOORD_0": 50
          },
          "indices": 51,
          "material": 0,
          "mode": 4
        }
      ]
    },
    {
      "name": "Model_material0_0",
      "primitives": [
        {
          "attributes": {
            "NORMAL": 53,
            "POSITION": 52,
            "TEXCOORD_0": 54
          },
          "indices": 55,
          "material": 0,
          "mode": 4
        }
      ]
    }
  ],
  "nodes": [
    {
      "children": [
        1
      ],
      "name": "RootNode (gltf orientation matrix)",
      "rotation": [
        -0.70710678118654746,
        -0,
        -0,
        0.70710678118654757
      ]
    },
    {
      "children": [
        2
      ],
      "name": "RootNode (model correction matrix)"
    },
    {
      "children": [
        3
      ],
      "matrix": [
        1,
        0,
        0,
        0,
        0,
        -1,
        0,
        0,
        0,
        0,
        -1,
        0,
        0,
        0,
        0,
        1
      ],
      "name": "model.fbx"
    },
    {
      "children": [
        4
      ],
      "name": "RootNode"
    },
    {
      "children": [
        5,
        6,
        7,
        8,
        9,
        10,
        11,
        12,
        13,
        14,
        15,
        16,
        17,
        18
      ],
      "name": "Model"
    },
    {
      "mesh": 0,
      "name": "Model_material0_0"
    },
    {
      "mesh": 1,
      "name": "Model_material0_0"
    },
    {
      "mesh": 2,
      "name": "Model_material0_0"
    },
    {
      "mesh": 3,
      "name": "Model_material0_0"
    },
    {
      "mesh": 4,
      "name": "Model_material0_0"
    },
    {
      "mesh": 5,
      "name": "Model_material0_0"
    },
    {
      "mesh": 6,
      "name": "Model_material0_0"
    },
    {
      "mesh": 7,
      "name": "Model_material0_0"
    },
    {
      "mesh": 8,
      "name": "Model_material0_0"
    },
    {
      "mesh": 9,
      "name": "Model_material0_0"
    },
    {
      "mesh": 10,
      "name": "Model_material0_0"
    },
    {
      "mesh": 11,
      "name": "Model_material0_0"
    },
    {
      "mesh": 12,
      "name": "Model_material0_0"
    },
    {
      "mesh": 13,
      "name": "Model_material0_0"
    }
  ],
  "samplers": [
    {
      "magFilter": 9729,
      "minFilter": 9987,
      "wrapS": 10497,
      "wrapT": 10497
    }
  ],
  "scene": 0,
  "scenes": [
    {
      "name": "OSG_Scene",
      "nodes": [
        0
      ]
    }
  ],
  "textures": [
    {
      "sampler": 0,
      "source": 0
    }
  ]
}

